<mxfile host="app.diagrams.net" agent="Mozilla/5.0 (Macintosh; Intel Mac OS X 10_15_7) AppleWebKit/537.36 (KHTML, like Gecko) Chrome/130.0.0.0 Safari/537.36" version="25.0.3">
  <diagram id="C5RBs43oDa-KdzZeNtuy" name="Page-1">
    <mxGraphModel dx="1985" dy="1050" grid="1" gridSize="10" guides="1" tooltips="1" connect="1" arrows="1" fold="1" page="1" pageScale="1" pageWidth="827" pageHeight="1169" math="0" shadow="0">
      <root>
        <mxCell id="WIyWlLk6GJQsqaUBKTNV-0" />
        <mxCell id="WIyWlLk6GJQsqaUBKTNV-1" parent="WIyWlLk6GJQsqaUBKTNV-0" />
        <mxCell id="F5djVeE5fVUUod3alpa7-3" value="" style="rounded=0;whiteSpace=wrap;html=1;fillColor=#fff2cc;strokeColor=none;opacity=75;movable=0;resizable=0;rotatable=0;deletable=0;editable=0;locked=1;connectable=0;" parent="WIyWlLk6GJQsqaUBKTNV-1" vertex="1">
          <mxGeometry x="210" y="490" width="830" height="470" as="geometry" />
        </mxCell>
        <mxCell id="GZTbHestCzabSNEejNbE-5" style="edgeStyle=orthogonalEdgeStyle;rounded=0;orthogonalLoop=1;jettySize=auto;html=1;verticalAlign=top;entryX=0.5;entryY=1;entryDx=0;entryDy=0;" parent="WIyWlLk6GJQsqaUBKTNV-1" source="WIyWlLk6GJQsqaUBKTNV-6" target="GZTbHestCzabSNEejNbE-3" edge="1">
          <mxGeometry relative="1" as="geometry">
            <mxPoint x="300" y="580" as="targetPoint" />
          </mxGeometry>
        </mxCell>
        <mxCell id="GZTbHestCzabSNEejNbE-7" value="No" style="edgeLabel;html=1;align=center;verticalAlign=middle;resizable=0;points=[];" parent="GZTbHestCzabSNEejNbE-5" vertex="1" connectable="0">
          <mxGeometry x="-0.0116" y="1" relative="1" as="geometry">
            <mxPoint x="5" as="offset" />
          </mxGeometry>
        </mxCell>
        <mxCell id="F5djVeE5fVUUod3alpa7-4" style="edgeStyle=orthogonalEdgeStyle;rounded=0;orthogonalLoop=1;jettySize=auto;html=1;exitX=1;exitY=0.5;exitDx=0;exitDy=0;entryX=0;entryY=0.5;entryDx=0;entryDy=0;" parent="WIyWlLk6GJQsqaUBKTNV-1" source="WIyWlLk6GJQsqaUBKTNV-6" target="GZTbHestCzabSNEejNbE-47" edge="1">
          <mxGeometry relative="1" as="geometry" />
        </mxCell>
        <mxCell id="F5djVeE5fVUUod3alpa7-5" value="Yes" style="edgeLabel;html=1;align=center;verticalAlign=middle;resizable=0;points=[];" parent="F5djVeE5fVUUod3alpa7-4" vertex="1" connectable="0">
          <mxGeometry x="-0.0061" y="1" relative="1" as="geometry">
            <mxPoint as="offset" />
          </mxGeometry>
        </mxCell>
        <mxCell id="WIyWlLk6GJQsqaUBKTNV-6" value="URL is&amp;nbsp;&lt;div&gt;protected&lt;/div&gt;" style="rhombus;whiteSpace=wrap;html=1;fillColor=#22FF00;" parent="WIyWlLk6GJQsqaUBKTNV-1" vertex="1">
          <mxGeometry x="240" y="630" width="120" height="60" as="geometry" />
        </mxCell>
        <mxCell id="GZTbHestCzabSNEejNbE-3" value="Is&amp;nbsp;&lt;span style=&quot;background-color: initial;&quot;&gt;login or&lt;/span&gt;&lt;div&gt;&amp;nbsp;register?&lt;/div&gt;" style="rhombus;whiteSpace=wrap;html=1;" parent="WIyWlLk6GJQsqaUBKTNV-1" vertex="1">
          <mxGeometry x="240" y="510" width="120" height="70" as="geometry" />
        </mxCell>
        <mxCell id="GZTbHestCzabSNEejNbE-8" value="&lt;b&gt;&lt;font style=&quot;font-size: 18px;&quot;&gt;Client-Side Routing in Tournament Organizer SPA&lt;/font&gt;&lt;/b&gt;" style="text;html=1;align=center;verticalAlign=middle;whiteSpace=wrap;rounded=0;" parent="WIyWlLk6GJQsqaUBKTNV-1" vertex="1">
          <mxGeometry x="50" y="560" width="160" height="140" as="geometry" />
        </mxCell>
        <mxCell id="GZTbHestCzabSNEejNbE-22" style="edgeStyle=orthogonalEdgeStyle;rounded=0;orthogonalLoop=1;jettySize=auto;html=1;exitX=0.5;exitY=0;exitDx=0;exitDy=0;entryX=0.5;entryY=1;entryDx=0;entryDy=0;" parent="WIyWlLk6GJQsqaUBKTNV-1" source="GZTbHestCzabSNEejNbE-10" target="GZTbHestCzabSNEejNbE-33" edge="1">
          <mxGeometry relative="1" as="geometry">
            <mxPoint x="420" y="310" as="targetPoint" />
          </mxGeometry>
        </mxCell>
        <mxCell id="GZTbHestCzabSNEejNbE-23" value="Yes" style="edgeLabel;html=1;align=center;verticalAlign=middle;resizable=0;points=[];" parent="GZTbHestCzabSNEejNbE-22" vertex="1" connectable="0">
          <mxGeometry x="0.0476" y="3" relative="1" as="geometry">
            <mxPoint as="offset" />
          </mxGeometry>
        </mxCell>
        <mxCell id="F5djVeE5fVUUod3alpa7-30" style="edgeStyle=orthogonalEdgeStyle;rounded=0;orthogonalLoop=1;jettySize=auto;html=1;exitX=1;exitY=0.5;exitDx=0;exitDy=0;entryX=0;entryY=0.5;entryDx=0;entryDy=0;" parent="WIyWlLk6GJQsqaUBKTNV-1" source="GZTbHestCzabSNEejNbE-10" target="F5djVeE5fVUUod3alpa7-29" edge="1">
          <mxGeometry relative="1" as="geometry" />
        </mxCell>
        <mxCell id="F5djVeE5fVUUod3alpa7-31" value="No" style="edgeLabel;html=1;align=center;verticalAlign=middle;resizable=0;points=[];" parent="F5djVeE5fVUUod3alpa7-30" vertex="1" connectable="0">
          <mxGeometry x="0.0038" relative="1" as="geometry">
            <mxPoint as="offset" />
          </mxGeometry>
        </mxCell>
        <mxCell id="GZTbHestCzabSNEejNbE-10" value="has&amp;nbsp;&lt;span style=&quot;background-color: initial;&quot;&gt;tenant&lt;/span&gt;&lt;div&gt;in URL?&lt;/div&gt;" style="rhombus;whiteSpace=wrap;html=1;" parent="WIyWlLk6GJQsqaUBKTNV-1" vertex="1">
          <mxGeometry x="240" y="380" width="120" height="70" as="geometry" />
        </mxCell>
        <mxCell id="GZTbHestCzabSNEejNbE-29" style="edgeStyle=orthogonalEdgeStyle;rounded=0;orthogonalLoop=1;jettySize=auto;html=1;exitX=0.5;exitY=0;exitDx=0;exitDy=0;entryX=0.5;entryY=1;entryDx=0;entryDy=0;" parent="WIyWlLk6GJQsqaUBKTNV-1" source="GZTbHestCzabSNEejNbE-11" target="GZTbHestCzabSNEejNbE-27" edge="1">
          <mxGeometry relative="1" as="geometry" />
        </mxCell>
        <mxCell id="GZTbHestCzabSNEejNbE-32" value="No" style="edgeLabel;html=1;align=center;verticalAlign=middle;resizable=0;points=[];" parent="GZTbHestCzabSNEejNbE-29" vertex="1" connectable="0">
          <mxGeometry x="-0.0857" relative="1" as="geometry">
            <mxPoint as="offset" />
          </mxGeometry>
        </mxCell>
        <mxCell id="F5djVeE5fVUUod3alpa7-17" style="edgeStyle=orthogonalEdgeStyle;rounded=0;orthogonalLoop=1;jettySize=auto;html=1;exitX=1;exitY=0.5;exitDx=0;exitDy=0;entryX=0;entryY=0.5;entryDx=0;entryDy=0;" parent="WIyWlLk6GJQsqaUBKTNV-1" source="GZTbHestCzabSNEejNbE-11" target="pziCTPXN2hdxTWN1fo_M-10" edge="1">
          <mxGeometry relative="1" as="geometry" />
        </mxCell>
        <mxCell id="F5djVeE5fVUUod3alpa7-18" value="Yes" style="edgeLabel;html=1;align=center;verticalAlign=middle;resizable=0;points=[];rotation=0;" parent="F5djVeE5fVUUod3alpa7-17" vertex="1" connectable="0">
          <mxGeometry x="-0.0095" y="3" relative="1" as="geometry">
            <mxPoint as="offset" />
          </mxGeometry>
        </mxCell>
        <mxCell id="GZTbHestCzabSNEejNbE-11" value="Does app&amp;nbsp;&lt;div&gt;&lt;span style=&quot;background-color: initial;&quot;&gt;have&amp;nbsp;&lt;/span&gt;&lt;span style=&quot;background-color: initial;&quot;&gt;tenant&amp;nbsp;&lt;/span&gt;&lt;span style=&quot;background-color: initial;&quot;&gt;in&amp;nbsp;&lt;/span&gt;&lt;div&gt;&lt;span style=&quot;background-color: initial;&quot;&gt;state?&lt;/span&gt;&lt;/div&gt;&lt;/div&gt;" style="rhombus;whiteSpace=wrap;html=1;" parent="WIyWlLk6GJQsqaUBKTNV-1" vertex="1">
          <mxGeometry x="470" y="510" width="120" height="70" as="geometry" />
        </mxCell>
        <mxCell id="GZTbHestCzabSNEejNbE-15" value="" style="endArrow=classic;html=1;rounded=0;entryX=0;entryY=0.5;entryDx=0;entryDy=0;exitX=1;exitY=0.5;exitDx=0;exitDy=0;" parent="WIyWlLk6GJQsqaUBKTNV-1" source="GZTbHestCzabSNEejNbE-3" target="GZTbHestCzabSNEejNbE-11" edge="1">
          <mxGeometry width="50" height="50" relative="1" as="geometry">
            <mxPoint x="410" y="460" as="sourcePoint" />
            <mxPoint x="410" y="420" as="targetPoint" />
            <Array as="points" />
          </mxGeometry>
        </mxCell>
        <mxCell id="GZTbHestCzabSNEejNbE-16" value="&lt;div&gt;&lt;br&gt;&lt;/div&gt;" style="edgeLabel;html=1;align=center;verticalAlign=middle;resizable=0;points=[];" parent="GZTbHestCzabSNEejNbE-15" vertex="1" connectable="0">
          <mxGeometry x="-0.0105" y="1" relative="1" as="geometry">
            <mxPoint x="-9" y="-10" as="offset" />
          </mxGeometry>
        </mxCell>
        <mxCell id="GZTbHestCzabSNEejNbE-17" value="Yes" style="edgeLabel;html=1;align=center;verticalAlign=middle;resizable=0;points=[];" parent="GZTbHestCzabSNEejNbE-15" vertex="1" connectable="0">
          <mxGeometry x="0.1133" y="-1" relative="1" as="geometry">
            <mxPoint x="-5" y="-11" as="offset" />
          </mxGeometry>
        </mxCell>
        <mxCell id="GZTbHestCzabSNEejNbE-18" value="" style="endArrow=classic;html=1;rounded=0;entryX=0.5;entryY=1;entryDx=0;entryDy=0;exitX=0.5;exitY=0;exitDx=0;exitDy=0;" parent="WIyWlLk6GJQsqaUBKTNV-1" source="GZTbHestCzabSNEejNbE-3" target="GZTbHestCzabSNEejNbE-10" edge="1">
          <mxGeometry width="50" height="50" relative="1" as="geometry">
            <mxPoint x="275" y="520" as="sourcePoint" />
            <mxPoint x="325" y="470" as="targetPoint" />
          </mxGeometry>
        </mxCell>
        <mxCell id="GZTbHestCzabSNEejNbE-20" value="No" style="edgeLabel;html=1;align=center;verticalAlign=middle;resizable=0;points=[];" parent="GZTbHestCzabSNEejNbE-18" vertex="1" connectable="0">
          <mxGeometry x="0.0617" y="-1" relative="1" as="geometry">
            <mxPoint as="offset" />
          </mxGeometry>
        </mxCell>
        <mxCell id="GZTbHestCzabSNEejNbE-36" style="edgeStyle=orthogonalEdgeStyle;rounded=0;orthogonalLoop=1;jettySize=auto;html=1;exitX=1;exitY=0.5;exitDx=0;exitDy=0;entryX=0;entryY=0.5;entryDx=0;entryDy=0;" parent="WIyWlLk6GJQsqaUBKTNV-1" source="GZTbHestCzabSNEejNbE-27" target="GZTbHestCzabSNEejNbE-34" edge="1">
          <mxGeometry relative="1" as="geometry">
            <mxPoint x="620" y="320" as="targetPoint" />
          </mxGeometry>
        </mxCell>
        <mxCell id="GZTbHestCzabSNEejNbE-38" value="Yes" style="edgeLabel;html=1;align=center;verticalAlign=middle;resizable=0;points=[];" parent="GZTbHestCzabSNEejNbE-36" vertex="1" connectable="0">
          <mxGeometry x="-0.0469" y="-1" relative="1" as="geometry">
            <mxPoint y="-11" as="offset" />
          </mxGeometry>
        </mxCell>
        <mxCell id="F5djVeE5fVUUod3alpa7-26" style="edgeStyle=orthogonalEdgeStyle;rounded=0;orthogonalLoop=1;jettySize=auto;html=1;exitX=0.5;exitY=0;exitDx=0;exitDy=0;entryX=0.5;entryY=1;entryDx=0;entryDy=0;" parent="WIyWlLk6GJQsqaUBKTNV-1" source="GZTbHestCzabSNEejNbE-27" target="F5djVeE5fVUUod3alpa7-29" edge="1">
          <mxGeometry relative="1" as="geometry" />
        </mxCell>
        <mxCell id="F5djVeE5fVUUod3alpa7-27" value="No" style="edgeLabel;html=1;align=center;verticalAlign=middle;resizable=0;points=[];" parent="F5djVeE5fVUUod3alpa7-26" vertex="1" connectable="0">
          <mxGeometry relative="1" as="geometry">
            <mxPoint as="offset" />
          </mxGeometry>
        </mxCell>
        <mxCell id="GZTbHestCzabSNEejNbE-27" value="Browser&amp;nbsp;&lt;div&gt;has&lt;span style=&quot;background-color: initial;&quot;&gt;&amp;nbsp;valid&amp;nbsp;&lt;/span&gt;&lt;span style=&quot;background-color: initial;&quot;&gt;acces&amp;nbsp;&lt;/span&gt;&lt;/div&gt;&lt;div&gt;&lt;span style=&quot;background-color: initial;&quot;&gt;token&lt;/span&gt;&lt;/div&gt;" style="rhombus;whiteSpace=wrap;html=1;horizontal=1;verticalAlign=middle;" parent="WIyWlLk6GJQsqaUBKTNV-1" vertex="1">
          <mxGeometry x="470" y="380" width="120" height="70" as="geometry" />
        </mxCell>
        <mxCell id="GZTbHestCzabSNEejNbE-28" value="Render dashboard (protected)" style="rounded=1;whiteSpace=wrap;html=1;fillColor=#dae8fc;strokeColor=#6c8ebf;" parent="WIyWlLk6GJQsqaUBKTNV-1" vertex="1">
          <mxGeometry x="870" y="515" width="120" height="60" as="geometry" />
        </mxCell>
        <mxCell id="F5djVeE5fVUUod3alpa7-14" style="edgeStyle=orthogonalEdgeStyle;rounded=0;orthogonalLoop=1;jettySize=auto;html=1;exitX=0.5;exitY=0;exitDx=0;exitDy=0;entryX=0.5;entryY=1;entryDx=0;entryDy=0;" parent="WIyWlLk6GJQsqaUBKTNV-1" source="GZTbHestCzabSNEejNbE-33" target="F5djVeE5fVUUod3alpa7-13" edge="1">
          <mxGeometry relative="1" as="geometry" />
        </mxCell>
        <mxCell id="GZTbHestCzabSNEejNbE-33" value="Fetch app&amp;nbsp;&lt;div&gt;data&amp;nbsp;&lt;span style=&quot;background-color: initial;&quot;&gt;from&amp;nbsp;&lt;/span&gt;&lt;span style=&quot;background-color: initial;&quot;&gt;server&amp;nbsp;&lt;/span&gt;&lt;/div&gt;&lt;div&gt;&lt;span style=&quot;background-color: initial;&quot;&gt;and&amp;nbsp;&lt;/span&gt;&lt;span style=&quot;background-color: initial;&quot;&gt;store&amp;nbsp;&lt;/span&gt;&lt;span style=&quot;background-color: initial;&quot;&gt;in state&lt;/span&gt;&lt;/div&gt;" style="ellipse;whiteSpace=wrap;html=1;" parent="WIyWlLk6GJQsqaUBKTNV-1" vertex="1">
          <mxGeometry x="240" y="270" width="120" height="70" as="geometry" />
        </mxCell>
        <mxCell id="F5djVeE5fVUUod3alpa7-20" style="edgeStyle=orthogonalEdgeStyle;rounded=0;orthogonalLoop=1;jettySize=auto;html=1;exitX=0.5;exitY=1;exitDx=0;exitDy=0;entryX=0.5;entryY=0;entryDx=0;entryDy=0;" parent="WIyWlLk6GJQsqaUBKTNV-1" source="GZTbHestCzabSNEejNbE-34" target="F5djVeE5fVUUod3alpa7-16" edge="1">
          <mxGeometry relative="1" as="geometry" />
        </mxCell>
        <mxCell id="GZTbHestCzabSNEejNbE-34" value="Fetch tenant from&amp;nbsp;&lt;div&gt;token payload and&amp;nbsp;&lt;div&gt;save in state&lt;/div&gt;&lt;/div&gt;" style="ellipse;whiteSpace=wrap;html=1;" parent="WIyWlLk6GJQsqaUBKTNV-1" vertex="1">
          <mxGeometry x="675" y="270" width="130" height="70" as="geometry" />
        </mxCell>
        <mxCell id="GZTbHestCzabSNEejNbE-49" style="edgeStyle=orthogonalEdgeStyle;rounded=0;orthogonalLoop=1;jettySize=auto;html=1;exitX=1;exitY=0.5;exitDx=0;exitDy=0;entryX=0;entryY=0.5;entryDx=0;entryDy=0;" parent="WIyWlLk6GJQsqaUBKTNV-1" source="GZTbHestCzabSNEejNbE-47" target="pziCTPXN2hdxTWN1fo_M-0" edge="1">
          <mxGeometry relative="1" as="geometry" />
        </mxCell>
        <mxCell id="GZTbHestCzabSNEejNbE-50" value="Yes" style="edgeLabel;html=1;align=center;verticalAlign=middle;resizable=0;points=[];" parent="GZTbHestCzabSNEejNbE-49" vertex="1" connectable="0">
          <mxGeometry relative="1" as="geometry">
            <mxPoint as="offset" />
          </mxGeometry>
        </mxCell>
        <mxCell id="GZTbHestCzabSNEejNbE-52" style="edgeStyle=orthogonalEdgeStyle;rounded=0;orthogonalLoop=1;jettySize=auto;html=1;exitX=0.5;exitY=1;exitDx=0;exitDy=0;" parent="WIyWlLk6GJQsqaUBKTNV-1" source="GZTbHestCzabSNEejNbE-47" target="GZTbHestCzabSNEejNbE-51" edge="1">
          <mxGeometry relative="1" as="geometry" />
        </mxCell>
        <mxCell id="GZTbHestCzabSNEejNbE-53" value="No" style="edgeLabel;html=1;align=center;verticalAlign=middle;resizable=0;points=[];" parent="GZTbHestCzabSNEejNbE-52" vertex="1" connectable="0">
          <mxGeometry relative="1" as="geometry">
            <mxPoint as="offset" />
          </mxGeometry>
        </mxCell>
        <mxCell id="GZTbHestCzabSNEejNbE-47" value="Does app&amp;nbsp;&lt;div&gt;&lt;span style=&quot;background-color: initial;&quot;&gt;have&amp;nbsp;&lt;/span&gt;&lt;span style=&quot;background-color: initial;&quot;&gt;tenant&amp;nbsp;&lt;/span&gt;&lt;span style=&quot;background-color: initial;&quot;&gt;in&amp;nbsp;&lt;/span&gt;&lt;div&gt;&lt;span style=&quot;background-color: initial;&quot;&gt;state?&lt;/span&gt;&lt;/div&gt;&lt;/div&gt;" style="rhombus;whiteSpace=wrap;html=1;horizontal=1;verticalAlign=middle;" parent="WIyWlLk6GJQsqaUBKTNV-1" vertex="1">
          <mxGeometry x="470" y="625" width="120" height="70" as="geometry" />
        </mxCell>
        <mxCell id="GZTbHestCzabSNEejNbE-54" style="edgeStyle=orthogonalEdgeStyle;rounded=0;orthogonalLoop=1;jettySize=auto;html=1;exitX=0.5;exitY=1;exitDx=0;exitDy=0;entryX=0.5;entryY=0;entryDx=0;entryDy=0;" parent="WIyWlLk6GJQsqaUBKTNV-1" source="GZTbHestCzabSNEejNbE-51" target="F5djVeE5fVUUod3alpa7-0" edge="1">
          <mxGeometry relative="1" as="geometry">
            <Array as="points">
              <mxPoint x="530" y="930" />
              <mxPoint x="530" y="930" />
            </Array>
          </mxGeometry>
        </mxCell>
        <mxCell id="GZTbHestCzabSNEejNbE-55" value="No" style="edgeLabel;html=1;align=center;verticalAlign=middle;resizable=0;points=[];" parent="GZTbHestCzabSNEejNbE-54" vertex="1" connectable="0">
          <mxGeometry relative="1" as="geometry">
            <mxPoint as="offset" />
          </mxGeometry>
        </mxCell>
        <mxCell id="GZTbHestCzabSNEejNbE-58" style="edgeStyle=orthogonalEdgeStyle;rounded=0;orthogonalLoop=1;jettySize=auto;html=1;exitX=1;exitY=0.5;exitDx=0;exitDy=0;entryX=0;entryY=0.5;entryDx=0;entryDy=0;" parent="WIyWlLk6GJQsqaUBKTNV-1" source="GZTbHestCzabSNEejNbE-51" target="GZTbHestCzabSNEejNbE-57" edge="1">
          <mxGeometry relative="1" as="geometry" />
        </mxCell>
        <mxCell id="GZTbHestCzabSNEejNbE-59" value="Yes" style="edgeLabel;html=1;align=center;verticalAlign=middle;resizable=0;points=[];" parent="GZTbHestCzabSNEejNbE-58" vertex="1" connectable="0">
          <mxGeometry relative="1" as="geometry">
            <mxPoint as="offset" />
          </mxGeometry>
        </mxCell>
        <mxCell id="GZTbHestCzabSNEejNbE-51" value="Browser&amp;nbsp;&lt;div&gt;has&lt;span style=&quot;background-color: initial;&quot;&gt;&amp;nbsp;valid&amp;nbsp;&lt;/span&gt;&lt;span style=&quot;background-color: initial;&quot;&gt;acces&amp;nbsp;&lt;/span&gt;&lt;/div&gt;&lt;div&gt;&lt;span style=&quot;background-color: initial;&quot;&gt;token?&lt;/span&gt;&lt;/div&gt;" style="rhombus;whiteSpace=wrap;html=1;horizontal=1;verticalAlign=middle;" parent="WIyWlLk6GJQsqaUBKTNV-1" vertex="1">
          <mxGeometry x="470" y="865" width="120" height="70" as="geometry" />
        </mxCell>
        <mxCell id="GZTbHestCzabSNEejNbE-60" style="edgeStyle=orthogonalEdgeStyle;rounded=0;orthogonalLoop=1;jettySize=auto;html=1;exitX=0.5;exitY=0;exitDx=0;exitDy=0;entryX=0.5;entryY=1;entryDx=0;entryDy=0;" parent="WIyWlLk6GJQsqaUBKTNV-1" source="GZTbHestCzabSNEejNbE-57" target="pziCTPXN2hdxTWN1fo_M-5" edge="1">
          <mxGeometry relative="1" as="geometry">
            <mxPoint x="910" y="705" as="targetPoint" />
          </mxGeometry>
        </mxCell>
        <mxCell id="GZTbHestCzabSNEejNbE-57" value="Fetch tenant from token payload and&amp;nbsp;&lt;div&gt;save in state&lt;/div&gt;" style="ellipse;whiteSpace=wrap;html=1;" parent="WIyWlLk6GJQsqaUBKTNV-1" vertex="1">
          <mxGeometry x="685" y="865" width="120" height="70" as="geometry" />
        </mxCell>
        <mxCell id="F5djVeE5fVUUod3alpa7-0" value="Render login or register&lt;span style=&quot;background-color: initial;&quot;&gt;&amp;nbsp;page&lt;/span&gt;" style="rounded=1;whiteSpace=wrap;html=1;fillColor=#dae8fc;strokeColor=#6c8ebf;" parent="WIyWlLk6GJQsqaUBKTNV-1" vertex="1">
          <mxGeometry x="470" y="990" width="120" height="60" as="geometry" />
        </mxCell>
        <mxCell id="F5djVeE5fVUUod3alpa7-7" value="&lt;font style=&quot;font-size: 16px;&quot;&gt;&lt;b&gt;Protected Pages&lt;/b&gt;&lt;/font&gt;&lt;div&gt;&lt;br&gt;&lt;/div&gt;" style="text;html=1;align=left;verticalAlign=middle;whiteSpace=wrap;rounded=0;" parent="WIyWlLk6GJQsqaUBKTNV-1" vertex="1">
          <mxGeometry x="270" y="785" width="60" height="30" as="geometry" />
        </mxCell>
        <mxCell id="F5djVeE5fVUUod3alpa7-11" value="&amp;nbsp;Render page&lt;div&gt;(protected)&lt;/div&gt;" style="rounded=1;whiteSpace=wrap;html=1;fillColor=#dae8fc;strokeColor=#6c8ebf;" parent="WIyWlLk6GJQsqaUBKTNV-1" vertex="1">
          <mxGeometry x="870" y="630" width="120" height="60" as="geometry" />
        </mxCell>
        <mxCell id="F5djVeE5fVUUod3alpa7-13" value="Render page&amp;nbsp;&lt;div&gt;(public)&lt;/div&gt;" style="rounded=1;whiteSpace=wrap;html=1;fillColor=#dae8fc;strokeColor=#6c8ebf;" parent="WIyWlLk6GJQsqaUBKTNV-1" vertex="1">
          <mxGeometry x="240" y="160" width="120" height="60" as="geometry" />
        </mxCell>
        <mxCell id="F5djVeE5fVUUod3alpa7-19" style="edgeStyle=orthogonalEdgeStyle;rounded=0;orthogonalLoop=1;jettySize=auto;html=1;exitX=1;exitY=0.5;exitDx=0;exitDy=0;entryX=0.5;entryY=0;entryDx=0;entryDy=0;" parent="WIyWlLk6GJQsqaUBKTNV-1" source="F5djVeE5fVUUod3alpa7-16" target="GZTbHestCzabSNEejNbE-28" edge="1">
          <mxGeometry relative="1" as="geometry">
            <mxPoint x="910" y="530" as="targetPoint" />
            <Array as="points">
              <mxPoint x="930" y="425" />
            </Array>
          </mxGeometry>
        </mxCell>
        <mxCell id="F5djVeE5fVUUod3alpa7-16" value="Fetch app&amp;nbsp;&lt;div&gt;data&lt;span style=&quot;background-color: initial;&quot;&gt;&amp;nbsp;from&amp;nbsp;&lt;/span&gt;&lt;span style=&quot;background-color: initial;&quot;&gt;server&lt;/span&gt;&lt;/div&gt;&lt;div&gt;&lt;span style=&quot;background-color: initial;&quot;&gt;and store in state&lt;/span&gt;&lt;/div&gt;" style="ellipse;whiteSpace=wrap;html=1;" parent="WIyWlLk6GJQsqaUBKTNV-1" vertex="1">
          <mxGeometry x="680" y="380" width="120" height="70" as="geometry" />
        </mxCell>
        <mxCell id="F5djVeE5fVUUod3alpa7-29" value="Render login or register page" style="rounded=1;whiteSpace=wrap;html=1;fillColor=#dae8fc;strokeColor=#6c8ebf;" parent="WIyWlLk6GJQsqaUBKTNV-1" vertex="1">
          <mxGeometry x="470" y="270" width="120" height="60" as="geometry" />
        </mxCell>
        <mxCell id="pziCTPXN2hdxTWN1fo_M-1" style="edgeStyle=orthogonalEdgeStyle;rounded=0;orthogonalLoop=1;jettySize=auto;html=1;exitX=0.5;exitY=1;exitDx=0;exitDy=0;entryX=0.5;entryY=0;entryDx=0;entryDy=0;" edge="1" parent="WIyWlLk6GJQsqaUBKTNV-1" source="pziCTPXN2hdxTWN1fo_M-0" target="pziCTPXN2hdxTWN1fo_M-5">
          <mxGeometry relative="1" as="geometry" />
        </mxCell>
        <mxCell id="pziCTPXN2hdxTWN1fo_M-2" value="No" style="edgeLabel;html=1;align=center;verticalAlign=middle;resizable=0;points=[];" vertex="1" connectable="0" parent="pziCTPXN2hdxTWN1fo_M-1">
          <mxGeometry relative="1" as="geometry">
            <mxPoint as="offset" />
          </mxGeometry>
        </mxCell>
        <mxCell id="pziCTPXN2hdxTWN1fo_M-3" style="edgeStyle=orthogonalEdgeStyle;rounded=0;orthogonalLoop=1;jettySize=auto;html=1;exitX=1;exitY=0.5;exitDx=0;exitDy=0;entryX=0;entryY=0.5;entryDx=0;entryDy=0;" edge="1" parent="WIyWlLk6GJQsqaUBKTNV-1" source="pziCTPXN2hdxTWN1fo_M-0" target="F5djVeE5fVUUod3alpa7-11">
          <mxGeometry relative="1" as="geometry" />
        </mxCell>
        <mxCell id="pziCTPXN2hdxTWN1fo_M-4" value="Yes" style="edgeLabel;html=1;align=center;verticalAlign=middle;resizable=0;points=[];" vertex="1" connectable="0" parent="pziCTPXN2hdxTWN1fo_M-3">
          <mxGeometry x="-0.0182" y="-1" relative="1" as="geometry">
            <mxPoint as="offset" />
          </mxGeometry>
        </mxCell>
        <mxCell id="pziCTPXN2hdxTWN1fo_M-0" value="Does app&amp;nbsp;&lt;div&gt;&lt;span style=&quot;background-color: initial;&quot;&gt;have data&lt;/span&gt;&lt;span style=&quot;background-color: initial;&quot;&gt;&amp;nbsp;&lt;/span&gt;&lt;span style=&quot;background-color: initial;&quot;&gt;in&amp;nbsp;&lt;/span&gt;&lt;div&gt;&lt;span style=&quot;background-color: initial;&quot;&gt;state?&lt;/span&gt;&lt;/div&gt;&lt;/div&gt;" style="rhombus;whiteSpace=wrap;html=1;horizontal=1;verticalAlign=middle;" vertex="1" parent="WIyWlLk6GJQsqaUBKTNV-1">
          <mxGeometry x="685" y="625" width="120" height="70" as="geometry" />
        </mxCell>
        <mxCell id="pziCTPXN2hdxTWN1fo_M-8" style="edgeStyle=orthogonalEdgeStyle;rounded=0;orthogonalLoop=1;jettySize=auto;html=1;exitX=1;exitY=0.5;exitDx=0;exitDy=0;entryX=0.5;entryY=1;entryDx=0;entryDy=0;" edge="1" parent="WIyWlLk6GJQsqaUBKTNV-1" source="pziCTPXN2hdxTWN1fo_M-5" target="F5djVeE5fVUUod3alpa7-11">
          <mxGeometry relative="1" as="geometry" />
        </mxCell>
        <mxCell id="pziCTPXN2hdxTWN1fo_M-5" value="Fetch app&amp;nbsp;&lt;div&gt;data &lt;span style=&quot;background-color: initial;&quot;&gt;from&amp;nbsp;&lt;/span&gt;&lt;span style=&quot;background-color: initial;&quot;&gt;server&amp;nbsp;&lt;/span&gt;&lt;/div&gt;&lt;div&gt;&lt;span style=&quot;background-color: initial;&quot;&gt;and store&amp;nbsp;&lt;/span&gt;&lt;span style=&quot;background-color: initial;&quot;&gt;in state&lt;/span&gt;&lt;/div&gt;" style="ellipse;whiteSpace=wrap;html=1;" vertex="1" parent="WIyWlLk6GJQsqaUBKTNV-1">
          <mxGeometry x="685" y="750" width="120" height="70" as="geometry" />
        </mxCell>
        <mxCell id="pziCTPXN2hdxTWN1fo_M-11" style="edgeStyle=orthogonalEdgeStyle;rounded=0;orthogonalLoop=1;jettySize=auto;html=1;exitX=1;exitY=0.5;exitDx=0;exitDy=0;entryX=0;entryY=0.5;entryDx=0;entryDy=0;" edge="1" parent="WIyWlLk6GJQsqaUBKTNV-1" source="pziCTPXN2hdxTWN1fo_M-10" target="GZTbHestCzabSNEejNbE-28">
          <mxGeometry relative="1" as="geometry" />
        </mxCell>
        <mxCell id="pziCTPXN2hdxTWN1fo_M-12" value="Yes" style="edgeLabel;html=1;align=center;verticalAlign=middle;resizable=0;points=[];" vertex="1" connectable="0" parent="pziCTPXN2hdxTWN1fo_M-11">
          <mxGeometry x="-0.05" y="-2" relative="1" as="geometry">
            <mxPoint x="-1" as="offset" />
          </mxGeometry>
        </mxCell>
        <mxCell id="pziCTPXN2hdxTWN1fo_M-13" style="edgeStyle=orthogonalEdgeStyle;rounded=0;orthogonalLoop=1;jettySize=auto;html=1;exitX=0.5;exitY=0;exitDx=0;exitDy=0;entryX=0.5;entryY=1;entryDx=0;entryDy=0;" edge="1" parent="WIyWlLk6GJQsqaUBKTNV-1" source="pziCTPXN2hdxTWN1fo_M-10" target="F5djVeE5fVUUod3alpa7-16">
          <mxGeometry relative="1" as="geometry" />
        </mxCell>
        <mxCell id="pziCTPXN2hdxTWN1fo_M-14" value="No" style="edgeLabel;html=1;align=center;verticalAlign=middle;resizable=0;points=[];" vertex="1" connectable="0" parent="pziCTPXN2hdxTWN1fo_M-13">
          <mxGeometry relative="1" as="geometry">
            <mxPoint as="offset" />
          </mxGeometry>
        </mxCell>
        <mxCell id="pziCTPXN2hdxTWN1fo_M-10" value="Does app&amp;nbsp;&lt;div&gt;&lt;span style=&quot;background-color: initial;&quot;&gt;have data&lt;/span&gt;&lt;span style=&quot;background-color: initial;&quot;&gt;&amp;nbsp;&lt;/span&gt;&lt;span style=&quot;background-color: initial;&quot;&gt;in&amp;nbsp;&lt;/span&gt;&lt;div&gt;&lt;span style=&quot;background-color: initial;&quot;&gt;state?&lt;/span&gt;&lt;/div&gt;&lt;/div&gt;" style="rhombus;whiteSpace=wrap;html=1;horizontal=1;verticalAlign=middle;" vertex="1" parent="WIyWlLk6GJQsqaUBKTNV-1">
          <mxGeometry x="680" y="510" width="120" height="70" as="geometry" />
        </mxCell>
      </root>
    </mxGraphModel>
  </diagram>
</mxfile>
